<?xml version="1.0" encoding="UTF-8" standalone="no"?>
<svg width="60px" height="60px" viewBox="0 0 60 60" version="1.1" xmlns="http://www.w3.org/2000/svg" xmlns:xlink="http://www.w3.org/1999/xlink" xmlns:sketch="http://www.bohemiancoding.com/sketch/ns">
    <!-- Generator: Sketch 3.4 (15575) - http://www.bohemiancoding.com/sketch -->
    <title>barcode-scan</title>
    <desc>Created with Sketch.</desc>
    <defs></defs>
    <g id="Shopping" stroke="none" stroke-width="1" fill="none" fill-rule="evenodd" sketch:type="MSPage">
        <g id="Icon-5" sketch:type="MSArtboardGroup" fill="#000000">
            <path d="M47.293,55.293 L45,57.586 L42.707,55.293 C42.316,54.902 41.684,54.902 41.293,55.293 L39,57.586 L34.707,53.293 C34.316,52.902 33.684,52.902 33.293,53.293 L29,57.586 L25.707,54.293 C25.316,53.902 24.684,53.902 24.293,54.293 L21,57.586 L15.707,52.293 C15.316,51.902 14.684,51.902 14.293,52.293 L10,56.586 L10,5 C10,2.243 7.757,0 5,0 C2.243,0 0,2.243 0,5 L0,39 C0,39.552 0.447,40 1,40 L5,40 C5.553,40 6,39.552 6,39 C6,38.448 5.553,38 5,38 L2,38 L2,5 C2,3.346 3.346,2 5,2 C6.654,2 8,3.346 8,5 L8,59 C8,59.13 8.026,59.26 8.077,59.382 C8.179,59.626 8.373,59.821 8.618,59.923 C8.862,60.024 9.138,60.024 9.382,59.923 C9.505,59.872 9.615,59.799 9.708,59.706 L15,54.414 L20.293,59.707 C20.684,60.098 21.316,60.098 21.707,59.707 L25,56.414 L28.293,59.707 C28.684,60.098 29.316,60.098 29.707,59.707 L34,55.414 L38.293,59.707 C38.684,60.098 39.316,60.098 39.707,59.707 L42,57.414 L44.293,59.707 C44.488,59.902 44.744,60 45,60 C45.256,60 45.512,59.902 45.707,59.707 L48.707,56.707 C49.098,56.316 49.098,55.684 48.707,55.293 C48.316,54.902 47.684,54.902 47.293,55.293 L47.293,55.293 Z M25,42 C24.447,42 24,42.448 24,43 L24,45 C24,45.552 24.447,46 25,46 C25.553,46 26,45.552 26,45 L26,43 C26,42.448 25.553,42 25,42 L25,42 Z M21,42 C20.447,42 20,42.448 20,43 L20,45 C20,45.552 20.447,46 21,46 C21.553,46 22,45.552 22,45 L22,43 C22,42.448 21.553,42 21,42 L21,42 Z M15,42 C14.447,42 14,42.448 14,43 L14,45 C14,45.552 14.447,46 15,46 C15.553,46 16,45.552 16,45 L16,43 C16,42.448 15.553,42 15,42 L15,42 Z M48,40 C48,37.215 46.36,34.812 44,33.685 L44,41 C44,41.552 43.553,42 43,42 C42.447,42 42,41.552 42,41 L42,33.08 C41.673,33.033 41.341,33 41,33 C39.926,33 38.911,33.251 38,33.685 L38,41 C38,41.552 37.553,42 37,42 C36.447,42 36,41.552 36,41 L36,35.11 C34.765,36.374 34,38.098 34,40 C34,43.86 37.141,47 41,47 C44.859,47 48,43.86 48,40 L48,40 Z M50,40 C50,44.962 45.963,49 41,49 C36.037,49 32,44.962 32,40 C32,36.641 33.854,33.71 36.588,32.165 C36.598,32.16 36.605,32.152 36.614,32.148 C37.913,31.42 39.407,31 41,31 C41.821,31 42.613,31.12 43.37,31.327 C43.377,31.33 43.385,31.33 43.392,31.333 C47.195,32.384 50,35.867 50,40 L50,40 Z M59.121,53.879 L51.402,46.16 C51.012,45.77 50.379,45.77 49.988,46.16 C49.598,46.551 49.598,47.184 49.988,47.574 L57.707,55.293 C58.097,55.683 58.097,56.318 57.707,56.708 C57.318,57.097 56.683,57.097 56.294,56.708 L48.63,49.028 C48.287,48.684 47.745,48.638 47.347,48.917 C45.41,50.28 43.216,51 41,51 C34.935,51 30,46.065 30,40 C30,33.935 34.935,29 41,29 C47.065,29 52,33.935 52,40 C52,41.071 51.847,42.128 51.544,43.143 C51.386,43.672 51.687,44.229 52.216,44.387 C52.748,44.548 53.303,44.244 53.46,43.715 C53.818,42.515 54,41.265 54,40 C54,32.832 48.168,27 41,27 C33.832,27 28,32.832 28,40 C28,47.168 33.832,53 41,53 C43.361,53 45.692,52.317 47.791,51.019 L54.879,58.121 C55.464,58.706 56.232,58.999 57,58.999 C57.769,58.999 58.536,58.707 59.121,58.122 C60.291,56.952 60.291,55.049 59.121,53.879 L59.121,53.879 Z M12,2 L51,2 C52.654,2 54,3.346 54,5 L54,32 C54,32.552 54.447,33 55,33 C55.553,33 56,32.552 56,32 L56,5 C56,2.243 53.757,0 51,0 L12,0 C11.447,0 11,0.448 11,1 C11,1.552 11.447,2 12,2 L12,2 Z M26,11 C26,10.448 25.553,10 25,10 C24.447,10 24,10.448 24,11 L24,39 C24,39.552 24.447,40 25,40 C25.553,40 26,39.552 26,39 L26,11 Z M48,11 L48,26 C48,26.552 48.447,27 49,27 C49.553,27 50,26.552 50,26 L50,11 C50,10.448 49.553,10 49,10 C48.447,10 48,10.448 48,11 L48,11 Z M44,11 L44,24 C44,24.552 44.447,25 45,25 C45.553,25 46,24.552 46,24 L46,11 C46,10.448 45.553,10 45,10 C44.447,10 44,10.448 44,11 L44,11 Z M38,11 L38,24 C38,24.552 38.447,25 39,25 C39.553,25 40,24.552 40,24 L40,11 C40,10.448 39.553,10 39,10 C38.447,10 38,10.448 38,11 L38,11 Z M30,11 L30,27 C30,27.552 30.447,28 31,28 C31.553,28 32,27.552 32,27 L32,11 C32,10.448 31.553,10 31,10 C30.447,10 30,10.448 30,11 L30,11 Z M22,11 C22,10.448 21.553,10 21,10 C20.447,10 20,10.448 20,11 L20,39 C20,39.552 20.447,40 21,40 C21.553,40 22,39.552 22,39 L22,11 Z M16,39 C16,39.552 15.553,40 15,40 C14.447,40 14,39.552 14,39 L14,11 C14,10.448 14.447,10 15,10 C15.553,10 16,10.448 16,11 L16,39 Z" id="barcode-scan" sketch:type="MSShapeGroup"></path>
        </g>
    </g>
</svg>