<?xml version="1.0" encoding="UTF-8" standalone="no"?>
<svg width="60px" height="60px" viewBox="0 0 60 60" version="1.1" xmlns="http://www.w3.org/2000/svg" xmlns:xlink="http://www.w3.org/1999/xlink" xmlns:sketch="http://www.bohemiancoding.com/sketch/ns">
    <!-- Generator: Sketch 3.4 (15575) - http://www.bohemiancoding.com/sketch -->
    <title>groceries</title>
    <desc>Created with Sketch.</desc>
    <defs></defs>
    <g id="Shopping" stroke="none" stroke-width="1" fill="none" fill-rule="evenodd" sketch:type="MSPage">
        <g id="Icon-6" sketch:type="MSArtboardGroup" fill="#000000">
            <path d="M1.293,2.707 C0.902,2.316 0.902,1.684 1.293,1.293 C1.684,0.902 2.316,0.902 2.707,1.293 L3.577,2.163 C11.891,5.438 12,13.914 12,14 C12,14.552 11.552,15 11,15 C10.449,15 10.001,14.554 10,14.002 C9.999,13.758 9.909,8.997 5.924,5.786 C7.961,9.953 8,13.796 8,14 C8,14.552 7.553,14.999 7.001,14.999 L7,14.999 C6.449,14.999 6.002,14.553 6,14.001 C6,13.959 5.965,10.769 4.386,7.216 C4.5,9.488 4.481,12.201 3.97,14.243 C3.856,14.697 3.449,15 3.001,15 C2.92,15 2.839,14.991 2.757,14.97 C2.222,14.836 1.896,14.293 2.03,13.757 C2.853,10.465 2.229,4.869 2.053,3.467 L1.293,2.707 Z M2,47.999 L2,54.999 C2,56.654 3.346,57.999 5,57.999 L32,57.999 C32.552,57.999 33,58.447 33,58.999 C33,59.552 32.552,59.999 32,59.999 L5,59.999 C2.243,59.999 0,57.756 0,54.999 L0,17 C0,16.596 0.244,16.231 0.617,16.076 C0.991,15.921 1.42,16.007 1.707,16.293 L3,17.586 L4.293,16.293 C4.684,15.902 5.316,15.902 5.707,16.293 L7,17.586 L8.293,16.293 C8.684,15.902 9.316,15.902 9.707,16.293 L11,17.586 L12.293,16.293 C12.684,15.902 13.316,15.902 13.707,16.293 L15,17.586 L16.293,16.293 C16.684,15.902 17.316,15.902 17.707,16.293 L19,17.586 L20.293,16.293 C20.684,15.902 21.316,15.902 21.707,16.293 L23,17.586 L24.293,16.293 C24.684,15.902 25.316,15.902 25.707,16.293 L27,17.586 L28.293,16.293 C28.684,15.902 29.316,15.902 29.707,16.293 L31.707,18.293 C32.098,18.684 32.098,19.316 31.707,19.707 C31.316,20.098 30.684,20.098 30.293,19.707 L29,18.414 L27.707,19.707 C27.316,20.098 26.684,20.098 26.293,19.707 L25,18.414 L23.707,19.707 C23.316,20.098 22.684,20.098 22.293,19.707 L21,18.414 L19.707,19.707 C19.316,20.098 18.684,20.098 18.293,19.707 L17,18.414 L15.707,19.707 C15.316,20.098 14.684,20.098 14.293,19.707 L13,18.414 L11.707,19.707 C11.316,20.098 10.684,20.098 10.293,19.707 L9,18.414 L7.707,19.707 C7.316,20.098 6.684,20.098 6.293,19.707 L5,18.414 L3.707,19.707 C3.316,20.098 2.684,20.098 2.293,19.707 L2,19.414 L2,45.999 L32,45.999 C32.552,45.999 33,46.447 33,46.999 C33,47.552 32.552,47.999 32,47.999 L2,47.999 Z M34,13 C34,13.552 33.552,14 33,14 C32.448,14 32,13.552 32,13 L32,6 L30,6 L30,14 C30,14.553 29.552,15 29,15 C28.448,15 28,14.553 28,14 L28,6 L16,5.999 L16,14 C16,14.553 15.552,15 15,15 C14.448,15 14,14.553 14,14 L14,6 C14,4.898 14.897,4 15.999,3.999 L32,3.999 C33.103,4 34,4.898 34,6 L34,13 Z M41,41 C41,40.448 41.448,40 42,40 L52,40 C52.552,40 53,40.448 53,41 C53,41.552 52.552,42 52,42 L42,42 C41.448,42 41,41.552 41,41 L41,41 Z M41,37 C41,36.448 41.448,36 42,36 L50,36 C50.552,36 51,36.448 51,37 C51,37.552 50.552,38 50,38 L42,38 C41.448,38 41,37.552 41,37 L41,37 Z M58,55 C58,56.654 56.654,58 55,58 L54,58 C53.4,58 52.695,57.289 51.948,56.536 L51.707,56.293 C51.52,56.105 51.265,56 51,56 C50.735,56 50.481,56.105 50.293,56.293 L50.052,56.536 C49.305,57.289 48.6,58 48,58 L46,58 C45.4,58 44.695,57.289 43.948,56.536 L43.707,56.293 C43.332,55.918 42.668,55.918 42.293,56.293 L42.052,56.536 C41.305,57.289 40.6,58 40,58 L39,58 C37.346,58 36,56.654 36,55 L36,51 C36,50.236 36.166,49.905 36.395,49.447 C36.664,48.908 37,48.236 37,47 L37,31.999 L54,31.999 C54.552,31.999 55,31.552 55,30.999 C55,30.447 54.552,29.999 54,29.999 L36.905,29.999 C36.788,29.368 36.579,28.922 36.395,28.553 C36.166,28.095 36,27.764 36,27 L36,19 C36,15.948 38.411,14.413 39.447,13.895 L43.447,11.895 C43.786,11.725 44,11.379 44,11 L44,8 L50,8 L50,11 C50,11.379 50.214,11.725 50.553,11.895 L54.553,13.895 C55.589,14.413 58,15.948 58,19 L58,27 C58,27.764 57.835,28.095 57.606,28.553 C57.336,29.092 57,29.764 57,31 L57,45.999 L40,45.999 C39.448,45.999 39,46.447 39,46.999 C39,47.552 39.448,47.999 40,47.999 L57.095,47.999 C57.212,48.631 57.421,49.078 57.606,49.447 C57.835,49.905 58,50.236 58,51 L58,55 Z M42,1.999 L52,1.999 L52.001,5.999 L50,5.999 L50,5 C50,4.448 49.552,4 49,4 C48.448,4 48,4.448 48,5 L48,5.999 L46,5.999 L46,5 C46,4.448 45.552,4 45,4 C44.448,4 44,4.448 44,5 L44,5.999 L42,5.999 L42,1.999 Z M59,31 C59,30.236 59.166,29.905 59.395,29.447 C59.664,28.908 60,28.236 60,27 L60,19 C60,16.108 58.298,13.531 55.447,12.105 L52,10.382 L52,7.999 C53.103,7.999 54,7.103 54,5.999 L54,1.999 C54,0.896 53.103,-0.001 52,-0.001 L42,-0.001 C40.897,-0.001 40,0.896 40,1.999 L40,5.999 C40,7.103 40.897,7.999 42,7.999 L42,10.382 L38.553,12.105 C35.702,13.531 34,16.108 34,19 L34,27 C34,28.236 34.336,28.908 34.606,29.447 C34.835,29.905 35,30.236 35,31 L35,47 C35,47.764 34.835,48.095 34.606,48.553 C34.336,49.092 34,49.764 34,51 L34,55 C34,57.757 36.243,60 39,60 L40,60 C41.21,60 42.137,59.255 43,58.414 C43.863,59.255 44.79,60 46,60 L48,60 C49.21,60 50.137,59.255 51,58.414 C51.863,59.255 52.79,60 54,60 L55,60 C57.757,60 60,57.757 60,55 L60,51 C60,49.764 59.664,49.092 59.395,48.553 C59.166,48.095 59,47.764 59,47 L59,31 Z" id="groceries" sketch:type="MSShapeGroup"></path>
        </g>
    </g>
</svg>